<svg preserveAspectRatio="none" overflow="visible" style="display: block;" width="14" height="14" viewBox="0 0 14 14" fill="none" xmlns="http://www.w3.org/2000/svg">
<g id="Group">
<g id="Vector">
</g>
<path id="Vector_2" fill-rule="evenodd" clip-rule="evenodd" d="M7 7.82483L10.2999 11.1247C10.4099 11.231 10.5573 11.2898 10.7102 11.2885C10.8632 11.2871 11.0095 11.2258 11.1176 11.1176C11.2258 11.0095 11.2871 10.8632 11.2885 10.7102C11.2898 10.5573 11.231 10.4099 11.1247 10.2999L7.82483 7L11.1247 3.70008C11.231 3.59007 11.2898 3.44271 11.2885 3.28977C11.2871 3.13682 11.2258 2.99051 11.1176 2.88236C11.0095 2.7742 10.8632 2.71285 10.7102 2.71152C10.5573 2.71019 10.4099 2.76899 10.2999 2.87525L7 6.17517L3.70008 2.87525C3.58957 2.77162 3.44307 2.71505 3.29159 2.71751C3.14011 2.71997 2.99553 2.78126 2.88844 2.88843C2.78135 2.9956 2.72015 3.14022 2.7178 3.2917C2.71545 3.44319 2.77212 3.58964 2.87583 3.70008L6.17517 7L2.87525 10.2999C2.81954 10.3537 2.7751 10.4181 2.74452 10.4893C2.71395 10.5604 2.69786 10.637 2.69719 10.7144C2.69651 10.7919 2.71127 10.8687 2.7406 10.9404C2.76993 11.0121 2.81325 11.0772 2.86802 11.132C2.92279 11.1868 2.98792 11.2301 3.05961 11.2594C3.1313 11.2887 3.20811 11.3035 3.28557 11.3028C3.36302 11.3021 3.43957 11.286 3.51074 11.2555C3.58191 11.2249 3.64627 11.1805 3.70008 11.1247L7 7.82483Z" fill="#707996"/>
</g>
</svg>
